<svg width="25" height="24" viewBox="0 0 25 24" fill="none" xmlns="http://www.w3.org/2000/svg">
<path d="M15.8334 5C17.2378 5 17.9401 5 18.4445 5.33706C18.6629 5.48298 18.8504 5.67048 18.9963 5.88886C19.3334 6.39331 19.3334 7.09554 19.3334 8.5V18C19.3334 19.8856 19.3334 20.8284 18.7476 21.4142C18.1618 22 17.219 22 15.3334 22H9.33337C7.44776 22 6.50495 22 5.91916 21.4142C5.33337 20.8284 5.33337 19.8856 5.33337 18V8.5C5.33337 7.09554 5.33337 6.39331 5.67043 5.88886C5.81635 5.67048 6.00385 5.48298 6.22223 5.33706C6.72668 5 7.42891 5 8.83337 5" stroke="currentColor"/>
<path d="M9.33337 5C9.33337 3.89543 10.2288 3 11.3334 3H13.3334C14.4379 3 15.3334 3.89543 15.3334 5C15.3334 6.10457 14.4379 7 13.3334 7H11.3334C10.2288 7 9.33337 6.10457 9.33337 5Z" stroke="currentColor"/>
<path d="M9.33337 12L15.3334 12" stroke="currentColor" stroke-linecap="round"/>
<path d="M9.33337 16L13.3334 16" stroke="currentColor" stroke-linecap="round"/>
</svg>
